<svg version="1" xmlns="http://www.w3.org/2000/svg" width="1088" height="1088" viewBox="0 0 816.000000 816.000000"><path d="M331.5 1.9c-7 4.4-8 8.1-6.2 23.1.4 3 .9 7.1 1.1 9 .7 5.6 1.8 14.3 2.1 16.5.2 1.1.6 4.2.9 7 .4 2.7.8 6.3 1 8 .2 1.6.7 5.5 1.1 8.5.3 3 .8 6.6 1 8 .3 2 1.6 13.1 1.7 15 .1 2-.4 3-1.6 3-3.3 0-36.5 18.4-39.6 22-.3.3-1.7 1.3-3.2 2.3-2.7 1.7-7 5.3-13 10.9-1.6 1.6-3.3 2.8-3.8 2.8-.4 0-1 .4-1.2.9-.1.5-3 3.8-6.3 7.3-11 11.8-16.3 18.6-24.4 31.6-5.8 9.4-15.2 27.8-14.4 28.6.3.2-.4.9-1.5 1.5s-2.1.8-2.3.6c-.4-.4-3-.7-14.1-2-2.4-.2-6.5-.7-9.3-1.1-2.7-.3-6.1-.7-7.5-.9-1.4-.2-5-.6-8-1s-7.3-.9-9.5-1.1c-4.3-.4-10.6-1.1-17-1.9-2.2-.3-6-.8-8.5-1.1-2.5-.3-6.1-.7-8-.9-13.4-1.7-17.5-1.6-20.8.4-1.8 1.2-4.1 3.5-5.2 5.3-1.9 3.2-2 5.2-2 76.6 0 65.7.2 73.8 1.6 76.8 2.4 5 6.6 7.6 12.2 7.7 5 .1 16.1-.9 20.1-1.7 1.3-.3 5.1-.8 8.5-1.1 3.3-.3 7.2-.7 8.6-1 2.2-.4 7.9-1 17.8-2 1.8-.1 5.1-.5 7.5-.9 10.2-1.4 12.5-1.6 17-2.1 11.6-1.2 13.6-1.4 16.1-1.9 2.4-.4 2.9 0 4.8 4.2 1.2 2.6 2.2 4.9 2.3 5.2.7 2.9 13.5 25.4 14.7 25.8.4.2.8 1 .8 1.8s.4 1.4.8 1.4 1.6 1.3 2.5 3c1 1.6 2.3 3.5 3 4.2.8.7 1.8 2 2.3 2.9 3.9 6.8 21.7 24.5 34.4 34.2 3 2.3 5.7 4.4 6 4.7.7.8 16.8 11 17.3 11 .3 0 3.3 1.6 6.7 3.5 3.4 1.9 6.8 3.5 7.6 3.5.8 0 1.4.4 1.4.8 0 .5.6.9 1.3 1 2.1.1 14.2 5.4 14.9 6.5.4.6.5 2.5.3 4.1-.2 1.7-.7 8.5-1 15.1-.3 6.6-.8 14.5-1 17.5-.2 3-.7 10.4-1 16.5-.3 6-.8 13.7-1.1 17-.3 3.3-.7 10.9-.9 17-.2 6-.5 11-.5 11-.1 0-.6 6.9-1.5 23-1 18.1-1.4 24.9-2 33.5-.3 4.7-.7 12.5-1 17.5-1.2 19.9-1.5 26.3-2 34-.2 4.4-.7 12.5-1 18-.3 5.5-.8 13.1-1 17-.3 3.8-.8 11.5-1.1 17-.3 5.5-.7 13.1-.9 17-.3 3.8-.7 11-.9 16-.3 4.9-.9 13.9-1.3 20-.4 6-.7 14.9-.7 19.6 0 7.6.2 8.9 2.4 11.6 1.4 1.7 4.1 3.6 6.1 4.2 2.5.8 25.6 1.1 76.3 1.1 79.3 0 75.9.3 80.3-5.8 2.1-2.8 2.2-3.7 1.7-16.8-.3-7.7-.7-16.2-.9-18.9-.3-4.6-1.2-20.5-2-35-.2-3.3-.6-10.3-.9-15.5-.3-5.2-.8-13.3-1.1-18-.3-4.7-.7-12.3-1-17-.6-8.7-1.1-18.2-2-35-.3-5.2-.7-12.2-1-15.5-.3-5.5-.9-15.9-2.1-36.5-.2-4.1-.6-11.1-.9-15.5-.3-4.4-.7-12.1-1-17-1.2-22.5-1.5-27.5-2-34.5-.3-4.1-.8-11.6-1.1-16.5-.2-5-.7-11.9-.9-15.5-.2-3.6-.7-12.6-1-20-.4-7.4-.9-13.8-1.1-14.1-.2-.4 3.3-2.1 7.9-3.9 13.1-5.2 33.4-15.9 40.2-21.2.6-.5 4.6-3.6 9-7s8.7-6.8 9.6-7.7c.9-.9 3.8-3.7 6.6-6.2 4.3-4 14.6-15.5 19.3-21.5 4.3-5.5 17.3-25.8 17.6-27.4 0-.3 2-4.7 4.5-9.8l4.4-9.3 6.5.5c3.6.3 7.6.7 9 1 1.4.2 5.2.7 8.5 1 3.3.4 7.1.8 8.5 1.1 1.4.2 5 .6 8 .9 3 .3 7.1.8 9 1 13.7 1.7 17.8 2.2 26.5 3.1 3.3.3 6.7.8 7.5 1 .8.2 4.9.6 9.1 1 9.8.8 14.7-1 17.7-6.4 2.2-3.9 2.2-3.9 2.2-77.8v-74l-2.3-3.4c-3.5-5.2-8-7.1-15.2-6.4-3.3.4-8 .9-10.5 1.1-2.5.3-5.8.7-7.5.9-6 .8-17.8 2.2-26 3-3.3.3-7.1.8-8.5 1-5.4.8-10.7 1.5-16 2-3 .3-6.6.8-8 1-1.4.2-5.6.7-9.4 1-3.7.3-7.2.7-7.6 1-.5.3-3.6-5.1-6.9-12-14.3-29.6-34.1-53.5-61.2-73.8-4.1-3-9-6.4-10.9-7.6-12.4-7.3-18.3-10.4-24.3-12.8l-6.9-2.8.6-6.5c.3-3.6.8-8.1 1-10 .3-1.9.8-5.8 1.1-8.5.3-2.8 1.1-8.6 1.6-13 .6-4.4 1.3-9.6 1.5-11.5.5-4.3 2.1-16.8 3.1-23.5.3-2.8.7-8 .7-11.7.1-5.8-.2-7-2.4-9.4-5.2-5.6-2.9-5.4-82.2-5.4-70 0-73.4.1-76.3 1.9zm10.6 157.3c0 .7.2 2 .3 2.8.2.8.6 4.2 1 7.5.3 3.3.8 6.9 1 8.1.2 1.1.7 4.7 1 7.9.4 3.2.9 7.2 1.1 8.9.3 1.7.7 5.1.9 7.6.3 2.5.7 6.1 1 8 .3 1.9.8 5.7 1.1 8.3l.6 4.9-6.3-.7c-3.5-.3-7.6-.8-9.3-.9-1.6-.2-5.5-.7-8.5-1-3-.4-6.6-.9-8-1.1-1.4-.2-4.7-.6-7.5-.9-2.7-.3-7.2-.9-10-1.3-2.7-.3-6.1-.7-7.5-.8-1.4-.2-2.7-.3-3-.5-.3-.1-1.5-.1-2.7-.1-1.1.1-2.4-.3-2.8-.8-.3-.6-.1-1.1.4-1.1.6 0 1.1-.5 1.1-1.1 0-1.5 10.1-16.9 11.1-16.9.5 0 .9-.6.9-1.3 0-1.7 14.3-16.3 22.5-22.9 7.4-5.9 19.2-13.8 20.7-13.8.4 0 .8.6.9 1.2zm144.1 5.1c5.2 3.5 11.2 7.9 13.4 9.8 6.1 5.4 19.4 19.2 19.4 20.2 0 .5.6 1.4 1.3 2.1 2.2 2.3 13 18.5 12.4 18.7-1.8.6-10 1.7-25.2 3.4-2.7.3-6.8.8-9 1.1-2.2.3-6 .7-8.5 1-2.5.2-6.1.6-8 .9-1.9.2-6.1.7-9.4 1.1l-5.8.6.7-4.3c.3-2.4.8-6.7 1.1-9.4.2-2.8.7-6.1.9-7.5.3-1.4.8-4.8 1.1-7.7.2-2.8.7-6.6 1-8.5.2-1.8.7-5.1.9-7.4.2-2.2.6-5.4.9-7 .2-1.6.7-5.3 1.1-8.2.4-2.8 1-5.2 1.5-5.2.4 0 5 2.9 10.2 6.3zM350.6 350.7c-.4 6.5-.9 15.2-1.2 19.3-.3 4.1-.7 10.9-.9 15-.4 6.7-1 16.5-1.4 21.3-.1 1.5-.7 1.4-5.3-1.1-4.5-2.4-11.8-6.9-15.3-9.4-8.5-6.2-23.2-20.1-27.1-25.7-.9-1.2-2.7-3.4-4-4.8-1.3-1.4-2.4-3.2-2.4-4 0-.7-.7-1.6-1.5-1.9-.8-.4-1.5-1-1.5-1.5s-1.1-2.7-2.5-4.9-2.5-4.4-2.5-4.9 2.4-1.2 5.3-1.5c10-1.2 15.2-1.8 18.7-2.1 1.9-.2 3.5-.4 3.5-.5 0-.1 1.9-.3 4.2-.5 2.3-.2 6.2-.7 8.5-1 2.4-.3 5.9-.8 7.8-.9 11.2-1.1 16.5-1.8 16.9-2.2 1.1-1.1 1.2.4.7 11.3zm129.9-9.1c7.1.9 16.2 1.8 19.3 1.9 1.7 0 3.2.3 3.2.6s1.5.6 3.3.6c1.7.1 5 .4 7.2.7 4.8.7 15.5 1.9 17.3 1.9 1.8 0 1.5 2.1-.8 5-1.1 1.4-2 2.8-2 3.1 0 1.1-7.3 11-12.9 17.6-5.4 6.3-12.4 13.1-18.6 18.2-7.6 6.2-26.1 17.5-27.1 16.5-.3-.3-.7-3.6-.9-7.4-.4-8.6-1.4-25.7-2.1-34.8-1-14.5-1.3-23.9-.8-24.7.5-.8 4.8-.5 14.9.8z"/></svg>